<svg width="120" height="80" viewBox="0 0 120 80" fill="none" xmlns="http://www.w3.org/2000/svg">
  <!-- Sports Car Outline -->
  <g stroke="#E5E7EB" stroke-width="1.2" fill="none">
    <!-- Main car body -->
    <path d="M15 45c-2 0-3-1-3-3v-2c0-2 1-4 3-6l8-8c2-2 5-3 8-3h50c3 0 6 1 8 3l8 8c2 2 3 4 3 6v2c0 2-1 3-3 3"/>
    
    <!-- Hood and front -->
    <path d="M23 23c2-2 4-3 7-3h30c3 0 5 1 7 3l5 5c1 1 2 3 2 5v7"/>
    
    <!-- Roof line -->
    <path d="M30 20c3-3 7-4 12-4h16c5 0 9 1 12 4l6 6c2 2 3 4 3 7v5c0 2-1 3-2 4"/>
    <path d="M27 38c-1-1-2-3-2-5v-8c0-3 2-6 4-8"/>
    
    <!-- Windshield -->
    <path d="M35 23l8-3h16l8 3-2 12H37l-2-12z"/>
    
    <!-- Side windows -->
    <path d="M42 25h6v8h-6z"/>
    <path d="M52 25h6v8h-6z"/>
    <path d="M62 25h6v8h-6z"/>
    
    <!-- Front and rear details -->
    <path d="M15 40h8v5h-8z"/>
    <path d="M77 40h8v5h-8z"/>
    
    <!-- Headlights -->
    <ellipse cx="20" cy="37" rx="2.5" ry="1.5"/>
    <ellipse cx="80" cy="37" rx="2.5" ry="1.5"/>
    
    <!-- Wheels -->
    <circle cx="30" cy="45" r="6"/>
    <circle cx="30" cy="45" r="3"/>
    <circle cx="70" cy="45" r="6"/>
    <circle cx="70" cy="45" r="3"/>
    
    <!-- Wheel arches -->
    <path d="M20 45c0-8 4-12 10-12s10 4 10 12"/>
    <path d="M60 45c0-8 4-12 10-12s10 4 10 12"/>
    
    <!-- Side body lines -->
    <path d="M25 35h50"/>
    <path d="M20 42h60"/>
    
    <!-- Rear spoiler -->
    <path d="M75 25h8l2 3h-12z"/>
  </g>
  
  <!-- AUTO BROKERAGE Text -->
  <g fill="#E5E7EB">
    <!-- AUTO -->
    <text x="8" y="65" font-family="Arial, sans-serif" font-size="8" font-weight="bold" letter-spacing="1.5">AUTO</text>
    
    <!-- BROKERAGE -->
    <text x="8" y="75" font-family="Arial, sans-serif" font-size="8" font-weight="bold" letter-spacing="1.5">BROKERAGE</text>
  </g>
</svg> 